<?xml version="1.0" encoding="UTF-8"?><svg id="_レイヤー_2" xmlns="http://www.w3.org/2000/svg" viewBox="0 0 22.23 22.23"><defs><style>.cls-1,.cls-2{stroke-width:0px;}.cls-2{fill:#fff;}</style></defs><g id="design"><path id="Initiator" class="cls-1" d="m22.23,11.12C22.23,4.98,17.26,0,11.12,0S0,4.98,0,11.12c0,5.21,3.59,9.59,8.43,10.79v-7.39h-2.29v-3.4h2.29v-1.46c0-3.78,1.71-5.54,5.43-5.54.7,0,1.92.14,2.42.28v3.08c-.26-.03-.72-.04-1.28-.04-1.82,0-2.53.69-2.53,2.49v1.2h3.63l-.62,3.4h-3.01v7.64c5.5-.66,9.77-5.35,9.77-11.04Z"/><path id="F" class="cls-2" d="m15.47,14.51l.62-3.4h-3.63v-1.2c0-1.8.7-2.49,2.53-2.49.57,0,1.02.01,1.28.04v-3.08c-.5-.14-1.71-.28-2.42-.28-3.71,0-5.43,1.75-5.43,5.54v1.46h-2.29v3.4h2.29v7.39c.86.21,1.76.33,2.69.33.46,0,.91-.03,1.35-.08v-7.64h3.01Z"/></g></svg>