<?xml version="1.0" encoding="UTF-8"?><svg id="_レイヤー_2" xmlns="http://www.w3.org/2000/svg" viewBox="0 0 22.23 22.23"><g id="design"><path d="m6.51.08c-1.18.06-1.99.25-2.7.52-.73.28-1.35.67-1.97,1.29-.62.62-1,1.24-1.28,1.97-.27.71-.46,1.52-.51,2.7C0,7.74,0,8.12,0,11.14c0,3.02.02,3.4.08,4.58.06,1.18.25,1.99.52,2.7.29.73.67,1.35,1.29,1.97.62.62,1.24,1,1.97,1.28.71.27,1.52.46,2.7.51,1.19.05,1.56.06,4.58.06,3.02,0,3.4-.02,4.58-.08,1.18-.06,1.99-.25,2.7-.52.73-.29,1.35-.67,1.97-1.29.62-.62,1-1.24,1.28-1.97.27-.71.46-1.52.51-2.7.05-1.19.06-1.57.06-4.58,0-3.02-.02-3.4-.08-4.58-.06-1.18-.25-1.99-.52-2.7-.29-.73-.67-1.35-1.29-1.97-.62-.62-1.24-1-1.97-1.28-.71-.27-1.52-.46-2.7-.51C14.49,0,14.11,0,11.1,0c-3.02,0-3.4.02-4.58.08m.13,20.1c-1.08-.05-1.67-.23-2.06-.38-.52-.2-.89-.44-1.28-.83-.39-.39-.63-.76-.83-1.28-.15-.39-.34-.98-.39-2.06-.06-1.17-.07-1.52-.07-4.49,0-2.97,0-3.32.06-4.49.05-1.08.23-1.67.38-2.06.2-.52.44-.89.83-1.28.39-.39.76-.63,1.28-.83.39-.15.98-.33,2.06-.39,1.17-.06,1.52-.07,4.49-.07,2.97,0,3.32,0,4.49.06,1.08.05,1.67.23,2.06.38.52.2.89.44,1.28.83.39.39.63.76.83,1.28.15.39.33.98.39,2.06.06,1.17.07,1.52.07,4.49,0,2.97,0,3.32-.06,4.49-.05,1.08-.23,1.67-.38,2.07-.2.52-.44.89-.83,1.28-.39.39-.76.63-1.28.83-.39.15-.98.33-2.06.39-1.17.06-1.52.07-4.49.07-2.97,0-3.32,0-4.49-.06M15.7,5.17c0,.74.6,1.33,1.34,1.33.74,0,1.33-.6,1.33-1.34,0-.74-.6-1.33-1.34-1.33s-1.33.6-1.33,1.34m-10.3,5.95c0,3.15,2.57,5.7,5.72,5.7,3.15,0,5.7-2.57,5.7-5.72,0-3.15-2.57-5.7-5.72-5.7-3.15,0-5.7,2.57-5.7,5.72m2,0c0-2.05,1.65-3.71,3.7-3.71,2.05,0,3.71,1.65,3.71,3.7,0,2.05-1.65,3.71-3.7,3.71-2.05,0-3.71-1.65-3.71-3.7"/></g></svg>