<svg xmlns="http://www.w3.org/2000/svg" width="13" height="13" viewBox="0 0 13 13">
  <g id="グループ_1497" data-name="グループ 1497" transform="translate(-274 -292)">
    <g id="長方形_1261" data-name="長方形 1261" transform="translate(274 292)" fill="#fff" stroke="#707070" stroke-width="0.25" opacity="0">
      <rect width="13" height="13" stroke="none"/>
      <rect x="0.125" y="0.125" width="12.75" height="12.75" fill="none"/>
    </g>
    <path id="パス_795" data-name="パス 795" d="M-12.717-3.224a.4.4,0,0,0-.392-.374.341.341,0,0,0-.287.152,1.4,1.4,0,0,1-1.123.491,1.516,1.516,0,0,1-1.521-1.591,1.546,1.546,0,0,1,1.515-1.632,1.233,1.233,0,0,1,.965.415.375.375,0,0,0,.3.158.367.367,0,0,0,.357-.363c0-.316-.632-.854-1.562-.854a2.235,2.235,0,0,0-2.264,2.317A2.15,2.15,0,0,0-14.49-2.282C-13.414-2.282-12.717-2.919-12.717-3.224Zm3.306-.328a1.389,1.389,0,0,0-.831-1.2c-.269-.146-.673-.334-.913-.462a.6.6,0,0,1-.369-.515.539.539,0,0,1,.6-.5.853.853,0,0,1,.673.269.371.371,0,0,0,.275.14.341.341,0,0,0,.328-.339c0-.275-.462-.661-1.27-.661A1.157,1.157,0,0,0-12.179-5.7a1.164,1.164,0,0,0,.749,1.053c.31.14.626.316.883.462a.772.772,0,0,1,.445.655c0,.187-.14.626-.784.626A1.006,1.006,0,0,1-11.74-3.3.315.315,0,0,0-12-3.446a.342.342,0,0,0-.339.334c0,.287.491.831,1.445.831A1.354,1.354,0,0,0-9.412-3.551Zm3.341,0a1.389,1.389,0,0,0-.831-1.2c-.269-.146-.673-.334-.913-.462a.6.6,0,0,1-.369-.515.539.539,0,0,1,.6-.5.853.853,0,0,1,.673.269.371.371,0,0,0,.275.14A.341.341,0,0,0-6.3-6.155c0-.275-.462-.661-1.27-.661A1.157,1.157,0,0,0-8.838-5.7a1.164,1.164,0,0,0,.749,1.053c.31.14.626.316.883.462a.772.772,0,0,1,.445.655c0,.187-.14.626-.784.626A1.006,1.006,0,0,1-8.4-3.3a.315.315,0,0,0-.257-.146A.342.342,0,0,0-9-3.112c0,.287.491.831,1.445.831A1.354,1.354,0,0,0-6.071-3.551Z" transform="translate(291.9 306.822)" fill="#98a6b5"/>
    <g id="グループ_1495" data-name="グループ 1495" transform="translate(14.18 -1)">
      <path id="パス_794" data-name="パス 794" d="M14.129,310.731l-1.331-.35a1.257,1.257,0,0,1-.9-.9l-.35-1.331a.21.21,0,0,0-.405,0l-.35,1.331a1.258,1.258,0,0,1-.9.9l-1.331.35a.21.21,0,0,0,0,.406l1.331.35a1.258,1.258,0,0,1,.9.9l.35,1.331a.21.21,0,0,0,.405,0l.35-1.331a1.257,1.257,0,0,1,.9-.9l1.331-.35a.21.21,0,0,0,0-.406Z" transform="translate(256.423 -14.996)" fill="#98a6b5"/>
      <path id="パス_796" data-name="パス 796" d="M11.817,309.626l-.792-.208a.749.749,0,0,1-.534-.534l-.209-.792a.125.125,0,0,0-.241,0l-.209.792a.749.749,0,0,1-.534.534l-.792.208a.125.125,0,0,0,0,.242l.792.209a.749.749,0,0,1,.534.534l.209.792a.125.125,0,0,0,.241,0l.209-.792a.749.749,0,0,1,.534-.534l.792-.209a.125.125,0,0,0,0-.242Z" transform="translate(253.893 -10.931)" fill="#98a6b5"/>
    </g>
  </g>
</svg>
