<svg xmlns="http://www.w3.org/2000/svg" width="15" height="12.596" viewBox="0 0 15 12.596">
  <g id="グループ_1489" data-name="グループ 1489" transform="translate(-332 -264.4)">
    <path id="合体_5" data-name="合体 5" d="M0,6.388H1.347A6.452,6.452,0,0,1,7.791,0a6.529,6.529,0,0,1,3.023.752L9.63,3.041a3.922,3.922,0,0,0-1.839-.464,3.871,3.871,0,0,0-3.867,3.81H5.156L2.578,10Z" transform="translate(332 264.4)" fill="#98a6b5"/>
    <path id="合体_4" data-name="合体 4" d="M0,9.245l1.184-2.29a3.922,3.922,0,0,0,1.838.464A3.872,3.872,0,0,0,6.89,3.609H5.658L8.236,0l2.578,3.609H9.468A6.452,6.452,0,0,1,3.023,10,6.529,6.529,0,0,1,0,9.245Z" transform="translate(336.186 267)" fill="#98a6b5"/>
  </g>
</svg>
