<svg xmlns="http://www.w3.org/2000/svg" width="13" height="13" viewBox="0 0 13 13">
  <g id="グループ_1498" data-name="グループ 1498" transform="translate(-260 -292)">
    <g id="長方形_1262" data-name="長方形 1262" transform="translate(260 292)" fill="#fff" stroke="#707070" stroke-width="0.25" opacity="0">
      <rect width="13" height="13" stroke="none"/>
      <rect x="0.125" y="0.125" width="12.75" height="12.75" fill="none"/>
    </g>
    <g id="グループ_1496" data-name="グループ 1496" transform="translate(-0.305 -1)">
      <path id="パス_794" data-name="パス 794" d="M14.129,310.731l-1.331-.35a1.257,1.257,0,0,1-.9-.9l-.35-1.331a.21.21,0,0,0-.405,0l-.35,1.331a1.258,1.258,0,0,1-.9.9l-1.331.35a.21.21,0,0,0,0,.406l1.331.35a1.258,1.258,0,0,1,.9.9l.35,1.331a.21.21,0,0,0,.405,0l.35-1.331a1.257,1.257,0,0,1,.9-.9l1.331-.35a.21.21,0,0,0,0-.406Z" transform="translate(256.423 -14.996)" fill="#98a6b5"/>
      <path id="パス_796" data-name="パス 796" d="M11.817,309.626l-.792-.208a.749.749,0,0,1-.534-.534l-.209-.792a.125.125,0,0,0-.241,0l-.209.792a.749.749,0,0,1-.534.534l-.792.208a.125.125,0,0,0,0,.242l.792.209a.749.749,0,0,1,.534.534l.209.792a.125.125,0,0,0,.241,0l.209-.792a.749.749,0,0,1,.534-.534l.792-.209a.125.125,0,0,0,0-.242Z" transform="translate(253.893 -10.931)" fill="#98a6b5"/>
    </g>
    <path id="パス_797" data-name="パス 797" d="M-17.981-2.278a2.174,2.174,0,0,0,2.257-2.269,2.2,2.2,0,0,0-2.257-2.269,2.2,2.2,0,0,0-2.251,2.269A2.169,2.169,0,0,0-17.981-2.278Zm0-.614a1.557,1.557,0,0,1-1.567-1.655,1.564,1.564,0,0,1,1.567-1.667,1.564,1.564,0,0,1,1.567,1.667A1.557,1.557,0,0,1-17.981-2.892Zm6.1-1.146c.105,0,.193.053.193.164a1.142,1.142,0,0,1-1.228.918,1.491,1.491,0,0,1-1.5-1.579A1.56,1.56,0,0,1-12.9-6.179a1.232,1.232,0,0,1,.965.415.375.375,0,0,0,.3.158.367.367,0,0,0,.357-.363c0-.316-.632-.854-1.561-.854A2.234,2.234,0,0,0-15.1-4.506a2.153,2.153,0,0,0,2.187,2.228,1.886,1.886,0,0,0,1.988-1.76c0-.363-.187-.62-.69-.62-.193,0-.52-.012-.807-.012-.193,0-.444,0-.444.31a.312.312,0,0,0,.292.339h.012c.322-.012.614-.018.672-.018Zm2.357,1.374v-.228c0-.386-.018-.8-.018-1.164,0-.047.006-.064.035-.064a.114.114,0,0,1,.041.006,1.868,1.868,0,0,0,.427.047A3.319,3.319,0,0,0-8.619-4.1,1.38,1.38,0,0,0-7.35-5.489,1.313,1.313,0,0,0-8.7-6.8c-.088-.006-.2-.012-.327-.012-1.146,0-1.152.386-1.152,1.105,0,.409.012.982.012,1.585,0,.5-.006,1.012-.029,1.468v.018a.311.311,0,0,0,.333.3A.317.317,0,0,0-9.525-2.664ZM-8.759-6.2A.67.67,0,0,1-8-5.518a.813.813,0,0,1-.713.819c-.123.012-.246.018-.357.018-.363,0-.479-.041-.479-.164v-.1c0-.2-.006-.444-.006-.649,0-.544.053-.608.52-.608C-8.9-6.2-8.759-6.2-8.759-6.2Z" transform="translate(280.232 306.822)" fill="#98a6b5"/>
  </g>
</svg>
