<svg xmlns="http://www.w3.org/2000/svg" width="12.6" height="12.6" viewBox="0 0 12.6 12.6">
  <g id="グループ_1492" data-name="グループ 1492" transform="translate(-370.652 -283.752)">
    <rect id="長方形_1249" data-name="長方形 1249" width="3.756" height="3.756" transform="translate(372.535 285.635)" fill="none" stroke="#98a6b5" stroke-linecap="round" stroke-linejoin="round" stroke-width="0.5"/>
    <rect id="長方形_1250" data-name="長方形 1250" width="3.756" height="3.756" transform="translate(372.535 290.713)" fill="none" stroke="#98a6b5" stroke-linecap="round" stroke-linejoin="round" stroke-width="0.5"/>
    <rect id="長方形_1251" data-name="長方形 1251" width="3.756" height="3.756" transform="translate(377.613 289.391) rotate(-90)" fill="none" stroke="#98a6b5" stroke-linecap="round" stroke-linejoin="round" stroke-width="0.5"/>
    <g id="グループ_1491" data-name="グループ 1491" transform="translate(370.902 284.002)">
      <path id="パス_787" data-name="パス 787" d="M4.17,6.394V4.17H6.394" transform="translate(-4.17 -4.17)" fill="none" stroke="#98a6b5" stroke-linecap="round" stroke-linejoin="round" stroke-width="0.5"/>
      <path id="パス_788" data-name="パス 788" d="M36.54,4.17h2.224V6.394" transform="translate(-26.665 -4.17)" fill="none" stroke="#98a6b5" stroke-linecap="round" stroke-linejoin="round" stroke-width="0.5"/>
      <path id="パス_789" data-name="パス 789" d="M4.17,6.394V4.17H6.394" transform="translate(-4.17 -4.17)" fill="none" stroke="#98a6b5" stroke-linecap="round" stroke-linejoin="round" stroke-width="0.5"/>
      <path id="パス_790" data-name="パス 790" d="M36.54,4.17h2.224V6.394" transform="translate(-26.665 -4.17)" fill="none" stroke="#98a6b5" stroke-linecap="round" stroke-linejoin="round" stroke-width="0.5"/>
      <path id="パス_791" data-name="パス 791" d="M4.17,36.54v2.224H6.394" transform="translate(-4.17 -26.665)" fill="none" stroke="#98a6b5" stroke-linecap="round" stroke-linejoin="round" stroke-width="0.5"/>
      <path id="パス_792" data-name="パス 792" d="M36.54,38.764h2.224V36.54" transform="translate(-26.665 -26.665)" fill="none" stroke="#98a6b5" stroke-linecap="round" stroke-linejoin="round" stroke-width="0.5"/>
    </g>
    <rect id="長方形_1252" data-name="長方形 1252" width="0.61" height="0.61" transform="translate(374.105 287.227)" fill="#98a6b5"/>
    <rect id="長方形_1253" data-name="長方形 1253" width="1.199" height="1.199" transform="translate(373.813 286.932)" fill="none" stroke="#98a6b5" stroke-miterlimit="10" stroke-width="0.5"/>
    <rect id="長方形_1254" data-name="長方形 1254" width="0.61" height="0.61" transform="translate(379.188 287.227)" fill="#98a6b5"/>
    <rect id="長方形_1255" data-name="長方形 1255" width="1.199" height="1.199" transform="translate(378.893 286.932)" fill="none" stroke="#98a6b5" stroke-miterlimit="10" stroke-width="0.5"/>
    <rect id="長方形_1256" data-name="長方形 1256" width="0.61" height="0.61" transform="translate(374.105 292.287)" fill="#98a6b5"/>
    <rect id="長方形_1257" data-name="長方形 1257" width="1.199" height="1.199" transform="translate(373.813 291.992)" fill="none" stroke="#98a6b5" stroke-miterlimit="10" stroke-width="0.5"/>
    <rect id="長方形_1258" data-name="長方形 1258" width="0.61" height="0.61" transform="translate(379.188 292.287)" fill="#98a6b5"/>
    <rect id="長方形_1259" data-name="長方形 1259" width="1.199" height="1.199" transform="translate(378.893 291.992)" fill="none" stroke="#98a6b5" stroke-miterlimit="10" stroke-width="0.5"/>
    <rect id="長方形_1260" data-name="長方形 1260" width="2.413" height="2.413" transform="translate(378.285 291.385)" fill="none" stroke="#98a6b5" stroke-linecap="round" stroke-linejoin="round" stroke-width="0.5"/>
  </g>
</svg>
